<svg width="44" height="44" viewBox="0 0 44 44" fill="none" xmlns="http://www.w3.org/2000/svg">
<g clip-path="url(#clip0_1337_2650)">
<path d="M44 22C44 9.84974 34.1503 0 22 0C9.84974 0 0 9.84974 0 22C0 34.1503 9.84974 44 22 44C34.1503 44 44 34.1503 44 22Z" fill="white"/>
<path d="M40 22C40 12.0589 31.9411 4 22 4C12.0589 4 4 12.0589 4 22C4 31.9411 12.0589 40 22 40C31.9411 40 40 31.9411 40 22Z" fill="white"/>
<path d="M17 17H27V27" stroke="#1F4284" stroke-width="2" stroke-linecap="round" stroke-linejoin="round"/>
<path d="M17 27L27 17" stroke="#1F4284" stroke-width="2" stroke-linecap="round" stroke-linejoin="round"/>
</g>
<defs>
<clipPath id="clip0_1337_2650">
<rect width="44" height="44" fill="white"/>
</clipPath>
</defs>
</svg>
